<svg width="400" height="220" viewBox="0 0 400 220" fill="none" xmlns="http://www.w3.org/2000/svg">
<g clip-path="url(#clip0_7_99)">
<path d="M0 20C0 8.9543 8.95431 0 20 0H380C391.046 0 400 8.95431 400 20V200C400 211.046 391.046 220 380 220H20C8.95431 220 0 211.046 0 200V20Z" fill="white"/>
<path d="M122 142H93V174H122V142Z" fill="#0032FF"/>
<path d="M103.423 189.504C104.522 189.611 105.359 189.952 105.935 190.528C106.511 191.093 106.799 191.819 106.799 192.704C106.799 193.344 106.639 193.925 106.319 194.448C105.999 194.96 105.519 195.371 104.879 195.68C104.25 195.979 103.477 196.128 102.559 196.128C101.759 196.128 100.991 196.011 100.255 195.776C99.5192 195.531 98.9165 195.195 98.4472 194.768L99.1832 193.504C99.5672 193.867 100.058 194.16 100.655 194.384C101.253 194.597 101.887 194.704 102.559 194.704C103.391 194.704 104.037 194.528 104.495 194.176C104.965 193.824 105.199 193.339 105.199 192.72C105.199 192.101 104.97 191.621 104.511 191.28C104.053 190.939 103.359 190.768 102.431 190.768H101.535V189.648L104.351 186.192H98.9592V184.8H106.351V185.888L103.423 189.504ZM116.085 194.608V196H108.037V194.912L112.597 190.512C113.152 189.979 113.525 189.52 113.717 189.136C113.909 188.741 114.005 188.347 114.005 187.952C114.005 187.365 113.797 186.912 113.381 186.592C112.976 186.261 112.389 186.096 111.621 186.096C110.384 186.096 109.429 186.501 108.757 187.312L107.669 186.368C108.107 185.835 108.677 185.419 109.381 185.12C110.096 184.821 110.891 184.672 111.765 184.672C112.939 184.672 113.872 184.955 114.565 185.52C115.259 186.075 115.605 186.832 115.605 187.792C115.605 188.389 115.477 188.955 115.221 189.488C114.965 190.021 114.48 190.629 113.765 191.312L110.341 194.608H116.085Z" fill="#3D3D3D"/>
<path d="M159 110H130V174H159V110Z" fill="#D252E1"/>
<path d="M139.811 189.2C140.547 189.2 141.203 189.339 141.779 189.616C142.366 189.893 142.824 190.293 143.155 190.816C143.486 191.328 143.651 191.92 143.651 192.592C143.651 193.296 143.475 193.915 143.123 194.448C142.782 194.981 142.307 195.397 141.699 195.696C141.102 195.984 140.43 196.128 139.683 196.128C138.179 196.128 137.016 195.643 136.195 194.672C135.384 193.701 134.979 192.325 134.979 190.544C134.979 189.296 135.198 188.235 135.635 187.36C136.083 186.475 136.702 185.808 137.491 185.36C138.291 184.901 139.219 184.672 140.275 184.672C140.819 184.672 141.331 184.731 141.811 184.848C142.291 184.955 142.707 185.115 143.059 185.328L142.451 186.576C141.918 186.224 141.203 186.048 140.307 186.048C139.144 186.048 138.232 186.411 137.571 187.136C136.91 187.851 136.579 188.896 136.579 190.272C136.579 190.443 136.584 190.576 136.595 190.672C136.915 190.192 137.352 189.829 137.907 189.584C138.472 189.328 139.107 189.2 139.811 189.2ZM139.619 194.832C140.355 194.832 140.952 194.635 141.411 194.24C141.87 193.845 142.099 193.317 142.099 192.656C142.099 191.995 141.864 191.472 141.395 191.088C140.936 190.693 140.318 190.496 139.539 190.496C139.038 190.496 138.59 190.592 138.195 190.784C137.811 190.976 137.507 191.237 137.283 191.568C137.07 191.899 136.963 192.267 136.963 192.672C136.963 193.067 137.064 193.429 137.267 193.76C137.48 194.08 137.784 194.341 138.179 194.544C138.584 194.736 139.064 194.832 139.619 194.832ZM154.598 193.248H152.47V196H150.918V193.248H144.694V192.128L150.422 184.8H152.15L146.662 191.872H150.966V189.44H152.47V191.872H154.598V193.248Z" fill="#3D3D3D"/>
<path d="M196 92H167V174H196V92Z" fill="#D252E1"/>
<path d="M179.374 190.128C180.014 190.373 180.504 190.725 180.846 191.184C181.187 191.643 181.358 192.192 181.358 192.832C181.358 193.504 181.176 194.091 180.814 194.592C180.451 195.083 179.934 195.461 179.262 195.728C178.59 195.995 177.8 196.128 176.894 196.128C175.998 196.128 175.214 195.995 174.542 195.728C173.88 195.461 173.368 195.083 173.006 194.592C172.643 194.091 172.462 193.504 172.462 192.832C172.462 192.192 172.627 191.643 172.958 191.184C173.299 190.725 173.79 190.373 174.43 190.128C173.918 189.883 173.528 189.557 173.262 189.152C172.995 188.747 172.862 188.267 172.862 187.712C172.862 187.093 173.027 186.555 173.358 186.096C173.699 185.637 174.174 185.285 174.782 185.04C175.39 184.795 176.094 184.672 176.894 184.672C177.704 184.672 178.414 184.795 179.022 185.04C179.64 185.285 180.115 185.637 180.446 186.096C180.787 186.555 180.958 187.093 180.958 187.712C180.958 188.256 180.819 188.736 180.542 189.152C180.275 189.557 179.886 189.883 179.374 190.128ZM176.894 185.968C176.136 185.968 175.539 186.133 175.102 186.464C174.664 186.784 174.446 187.221 174.446 187.776C174.446 188.331 174.659 188.768 175.086 189.088C175.523 189.408 176.126 189.568 176.894 189.568C177.672 189.568 178.28 189.408 178.718 189.088C179.166 188.768 179.39 188.331 179.39 187.776C179.39 187.221 179.16 186.784 178.702 186.464C178.254 186.133 177.651 185.968 176.894 185.968ZM176.894 194.832C177.779 194.832 178.478 194.651 178.99 194.288C179.502 193.915 179.758 193.413 179.758 192.784C179.758 192.165 179.502 191.68 178.99 191.328C178.478 190.965 177.779 190.784 176.894 190.784C176.008 190.784 175.315 190.965 174.814 191.328C174.312 191.68 174.062 192.165 174.062 192.784C174.062 193.413 174.312 193.915 174.814 194.288C175.315 194.651 176.008 194.832 176.894 194.832ZM190.695 194.608V196H182.647V194.912L187.207 190.512C187.761 189.979 188.135 189.52 188.327 189.136C188.519 188.741 188.615 188.347 188.615 187.952C188.615 187.365 188.407 186.912 187.991 186.592C187.585 186.261 186.999 186.096 186.231 186.096C184.993 186.096 184.039 186.501 183.367 187.312L182.279 186.368C182.716 185.835 183.287 185.419 183.991 185.12C184.705 184.821 185.5 184.672 186.375 184.672C187.548 184.672 188.481 184.955 189.175 185.52C189.868 186.075 190.215 186.832 190.215 187.792C190.215 188.389 190.087 188.955 189.831 189.488C189.575 190.021 189.089 190.629 188.375 191.312L184.951 194.608H190.695Z" fill="#3D3D3D"/>
<path d="M233 78H204V174H233V78Z" fill="#0032FF"/>
<path d="M213.025 184.672C214.529 184.672 215.686 185.157 216.497 186.128C217.318 187.099 217.729 188.475 217.729 190.256C217.729 191.504 217.505 192.571 217.057 193.456C216.62 194.331 216.001 194.997 215.201 195.456C214.412 195.904 213.489 196.128 212.433 196.128C211.889 196.128 211.377 196.075 210.897 195.968C210.417 195.851 210.001 195.685 209.649 195.472L210.257 194.224C210.801 194.576 211.521 194.752 212.417 194.752C213.58 194.752 214.486 194.395 215.137 193.68C215.798 192.955 216.129 191.904 216.129 190.528V190.128C215.809 190.608 215.366 190.976 214.801 191.232C214.236 191.477 213.601 191.6 212.897 191.6C212.161 191.6 211.5 191.461 210.913 191.184C210.337 190.907 209.884 190.512 209.553 190C209.233 189.477 209.073 188.88 209.073 188.208C209.073 187.504 209.244 186.885 209.585 186.352C209.937 185.819 210.412 185.408 211.009 185.12C211.606 184.821 212.278 184.672 213.025 184.672ZM213.169 190.304C213.67 190.304 214.118 190.208 214.513 190.016C214.908 189.824 215.212 189.563 215.425 189.232C215.649 188.901 215.761 188.533 215.761 188.128C215.761 187.733 215.654 187.376 215.441 187.056C215.238 186.725 214.934 186.464 214.529 186.272C214.134 186.069 213.654 185.968 213.089 185.968C212.353 185.968 211.756 186.165 211.297 186.56C210.849 186.955 210.625 187.483 210.625 188.144C210.625 188.805 210.854 189.333 211.313 189.728C211.772 190.112 212.39 190.304 213.169 190.304ZM224.1 189.2C224.836 189.2 225.492 189.339 226.068 189.616C226.655 189.893 227.113 190.293 227.444 190.816C227.775 191.328 227.94 191.92 227.94 192.592C227.94 193.296 227.764 193.915 227.412 194.448C227.071 194.981 226.596 195.397 225.988 195.696C225.391 195.984 224.719 196.128 223.972 196.128C222.468 196.128 221.305 195.643 220.484 194.672C219.673 193.701 219.268 192.325 219.268 190.544C219.268 189.296 219.487 188.235 219.924 187.36C220.372 186.475 220.991 185.808 221.78 185.36C222.58 184.901 223.508 184.672 224.564 184.672C225.108 184.672 225.62 184.731 226.1 184.848C226.58 184.955 226.996 185.115 227.348 185.328L226.74 186.576C226.207 186.224 225.492 186.048 224.596 186.048C223.433 186.048 222.521 186.411 221.86 187.136C221.199 187.851 220.868 188.896 220.868 190.272C220.868 190.443 220.873 190.576 220.884 190.672C221.204 190.192 221.641 189.829 222.196 189.584C222.761 189.328 223.396 189.2 224.1 189.2ZM223.908 194.832C224.644 194.832 225.241 194.635 225.7 194.24C226.159 193.845 226.388 193.317 226.388 192.656C226.388 191.995 226.153 191.472 225.684 191.088C225.225 190.693 224.607 190.496 223.828 190.496C223.327 190.496 222.879 190.592 222.484 190.784C222.1 190.976 221.796 191.237 221.572 191.568C221.359 191.899 221.252 192.267 221.252 192.672C221.252 193.067 221.353 193.429 221.556 193.76C221.769 194.08 222.073 194.341 222.468 194.544C222.873 194.736 223.353 194.832 223.908 194.832Z" fill="#3D3D3D"/>
<path d="M270 86H241V174H270V86Z" fill="#0032FF"/>
<path d="M252.819 190.128C253.459 190.373 253.95 190.725 254.291 191.184C254.632 191.643 254.803 192.192 254.803 192.832C254.803 193.504 254.622 194.091 254.259 194.592C253.896 195.083 253.379 195.461 252.707 195.728C252.035 195.995 251.246 196.128 250.339 196.128C249.443 196.128 248.659 195.995 247.987 195.728C247.326 195.461 246.814 195.083 246.451 194.592C246.088 194.091 245.907 193.504 245.907 192.832C245.907 192.192 246.072 191.643 246.403 191.184C246.744 190.725 247.235 190.373 247.875 190.128C247.363 189.883 246.974 189.557 246.707 189.152C246.44 188.747 246.307 188.267 246.307 187.712C246.307 187.093 246.472 186.555 246.803 186.096C247.144 185.637 247.619 185.285 248.227 185.04C248.835 184.795 249.539 184.672 250.339 184.672C251.15 184.672 251.859 184.795 252.467 185.04C253.086 185.285 253.56 185.637 253.891 186.096C254.232 186.555 254.403 187.093 254.403 187.712C254.403 188.256 254.264 188.736 253.987 189.152C253.72 189.557 253.331 189.883 252.819 190.128ZM250.339 185.968C249.582 185.968 248.984 186.133 248.547 186.464C248.11 186.784 247.891 187.221 247.891 187.776C247.891 188.331 248.104 188.768 248.531 189.088C248.968 189.408 249.571 189.568 250.339 189.568C251.118 189.568 251.726 189.408 252.163 189.088C252.611 188.768 252.835 188.331 252.835 187.776C252.835 187.221 252.606 186.784 252.147 186.464C251.699 186.133 251.096 185.968 250.339 185.968ZM250.339 194.832C251.224 194.832 251.923 194.651 252.435 194.288C252.947 193.915 253.203 193.413 253.203 192.784C253.203 192.165 252.947 191.68 252.435 191.328C251.923 190.965 251.224 190.784 250.339 190.784C249.454 190.784 248.76 190.965 248.259 191.328C247.758 191.68 247.507 192.165 247.507 192.784C247.507 193.413 247.758 193.915 248.259 194.288C248.76 194.651 249.454 194.832 250.339 194.832ZM263.116 190.128C263.756 190.373 264.247 190.725 264.588 191.184C264.929 191.643 265.1 192.192 265.1 192.832C265.1 193.504 264.919 194.091 264.556 194.592C264.193 195.083 263.676 195.461 263.004 195.728C262.332 195.995 261.543 196.128 260.636 196.128C259.74 196.128 258.956 195.995 258.284 195.728C257.623 195.461 257.111 195.083 256.748 194.592C256.385 194.091 256.204 193.504 256.204 192.832C256.204 192.192 256.369 191.643 256.7 191.184C257.041 190.725 257.532 190.373 258.172 190.128C257.66 189.883 257.271 189.557 257.004 189.152C256.737 188.747 256.604 188.267 256.604 187.712C256.604 187.093 256.769 186.555 257.1 186.096C257.441 185.637 257.916 185.285 258.524 185.04C259.132 184.795 259.836 184.672 260.636 184.672C261.447 184.672 262.156 184.795 262.764 185.04C263.383 185.285 263.857 185.637 264.188 186.096C264.529 186.555 264.7 187.093 264.7 187.712C264.7 188.256 264.561 188.736 264.284 189.152C264.017 189.557 263.628 189.883 263.116 190.128ZM260.636 185.968C259.879 185.968 259.281 186.133 258.844 186.464C258.407 186.784 258.188 187.221 258.188 187.776C258.188 188.331 258.401 188.768 258.828 189.088C259.265 189.408 259.868 189.568 260.636 189.568C261.415 189.568 262.023 189.408 262.46 189.088C262.908 188.768 263.132 188.331 263.132 187.776C263.132 187.221 262.903 186.784 262.444 186.464C261.996 186.133 261.393 185.968 260.636 185.968ZM260.636 194.832C261.521 194.832 262.22 194.651 262.732 194.288C263.244 193.915 263.5 193.413 263.5 192.784C263.5 192.165 263.244 191.68 262.732 191.328C262.22 190.965 261.521 190.784 260.636 190.784C259.751 190.784 259.057 190.965 258.556 191.328C258.055 191.68 257.804 192.165 257.804 192.784C257.804 193.413 258.055 193.915 258.556 194.288C259.057 194.651 259.751 194.832 260.636 194.832Z" fill="#3D3D3D"/>
<path d="M307 66H278V174H307V66Z" fill="#0032FF"/>
<path d="M283.107 184.8V196H281.523V186.192H278.995V184.8H283.107ZM290.133 196.128C289.248 196.128 288.458 195.904 287.765 195.456C287.082 194.997 286.544 194.336 286.149 193.472C285.754 192.608 285.557 191.584 285.557 190.4C285.557 189.216 285.754 188.192 286.149 187.328C286.544 186.464 287.082 185.808 287.765 185.36C288.458 184.901 289.248 184.672 290.133 184.672C291.008 184.672 291.786 184.901 292.469 185.36C293.162 185.808 293.706 186.464 294.101 187.328C294.496 188.192 294.693 189.216 294.693 190.4C294.693 191.584 294.496 192.608 294.101 193.472C293.706 194.336 293.162 194.997 292.469 195.456C291.786 195.904 291.008 196.128 290.133 196.128ZM290.133 194.704C291.029 194.704 291.744 194.336 292.277 193.6C292.821 192.864 293.093 191.797 293.093 190.4C293.093 189.003 292.821 187.936 292.277 187.2C291.744 186.464 291.029 186.096 290.133 186.096C289.226 186.096 288.501 186.464 287.957 187.2C287.424 187.936 287.157 189.003 287.157 190.4C287.157 191.797 287.424 192.864 287.957 193.6C288.501 194.336 289.226 194.704 290.133 194.704ZM300.805 196.128C299.92 196.128 299.13 195.904 298.437 195.456C297.754 194.997 297.216 194.336 296.821 193.472C296.426 192.608 296.229 191.584 296.229 190.4C296.229 189.216 296.426 188.192 296.821 187.328C297.216 186.464 297.754 185.808 298.437 185.36C299.13 184.901 299.92 184.672 300.805 184.672C301.68 184.672 302.458 184.901 303.141 185.36C303.834 185.808 304.378 186.464 304.773 187.328C305.168 188.192 305.365 189.216 305.365 190.4C305.365 191.584 305.168 192.608 304.773 193.472C304.378 194.336 303.834 194.997 303.141 195.456C302.458 195.904 301.68 196.128 300.805 196.128ZM300.805 194.704C301.701 194.704 302.416 194.336 302.949 193.6C303.493 192.864 303.765 191.797 303.765 190.4C303.765 189.003 303.493 187.936 302.949 187.2C302.416 186.464 301.701 186.096 300.805 186.096C299.898 186.096 299.173 186.464 298.629 187.2C298.096 187.936 297.829 189.003 297.829 190.4C297.829 191.797 298.096 192.864 298.629 193.6C299.173 194.336 299.898 194.704 300.805 194.704Z" fill="#3D3D3D"/>
<path d="M20 1H380V-1H20V1ZM399 20V200H401V20H399ZM380 219H20V221H380V219ZM1 200V20H-1V200H1ZM20 219C9.50659 219 1 210.493 1 200H-1C-1 211.598 8.40203 221 20 221V219ZM399 200C399 210.493 390.493 219 380 219V221C391.598 221 401 211.598 401 200H399ZM380 1C390.493 1 399 9.50659 399 20H401C401 8.40202 391.598 -1 380 -1V1ZM20 -1C8.40202 -1 -1 8.40201 -1 20H1C1 9.50658 9.50659 1 20 1V-1Z" fill="#141414"/>
<path d="M142.872 41H140.2L145.065 27.1818H148.155L153.026 41H150.354L146.664 30.0156H146.556L142.872 41ZM142.96 35.582H150.246V37.5927H142.96V35.582ZM154.738 41V30.6364H157.107V32.3636H157.215C157.403 31.7654 157.727 31.3043 158.186 30.9805C158.649 30.6521 159.178 30.4879 159.772 30.4879C159.907 30.4879 160.057 30.4947 160.224 30.5082C160.395 30.5172 160.536 30.5329 160.649 30.5554V32.8022C160.545 32.7662 160.381 32.7347 160.156 32.7077C159.936 32.6763 159.722 32.6605 159.515 32.6605C159.07 32.6605 158.67 32.7572 158.314 32.9506C157.964 33.1396 157.687 33.4027 157.484 33.7401C157.282 34.0774 157.181 34.4665 157.181 34.9073V41H154.738ZM162.272 41V30.6364H164.64V32.3636H164.748C164.937 31.7654 165.261 31.3043 165.719 30.9805C166.183 30.6521 166.711 30.4879 167.305 30.4879C167.44 30.4879 167.591 30.4947 167.757 30.5082C167.928 30.5172 168.07 30.5329 168.182 30.5554V32.8022C168.079 32.7662 167.914 32.7347 167.69 32.7077C167.469 32.6763 167.255 32.6605 167.049 32.6605C166.603 32.6605 166.203 32.7572 165.848 32.9506C165.497 33.1396 165.22 33.4027 165.018 33.7401C164.815 34.0774 164.714 34.4665 164.714 34.9073V41H162.272ZM172.601 41.2092C171.945 41.2092 171.353 41.0922 170.827 40.8583C170.305 40.6199 169.891 40.2691 169.585 39.8058C169.284 39.3424 169.133 38.7712 169.133 38.092C169.133 37.5072 169.241 37.0237 169.457 36.6413C169.673 36.259 169.968 35.9531 170.341 35.7237C170.715 35.4943 171.135 35.3211 171.603 35.2042C172.075 35.0827 172.563 34.995 173.067 34.9411C173.674 34.8781 174.167 34.8219 174.545 34.7724C174.922 34.7184 175.197 34.6374 175.368 34.5295C175.543 34.417 175.631 34.2438 175.631 34.0099V33.9695C175.631 33.4612 175.48 33.0676 175.179 32.7887C174.878 32.5098 174.443 32.3704 173.877 32.3704C173.278 32.3704 172.804 32.5008 172.453 32.7617C172.107 33.0226 171.873 33.3307 171.751 33.6861L169.471 33.3622C169.651 32.7325 169.948 32.2062 170.361 31.7834C170.775 31.3561 171.281 31.0367 171.88 30.8253C172.478 30.6094 173.139 30.5014 173.863 30.5014C174.362 30.5014 174.86 30.5599 175.354 30.6768C175.849 30.7938 176.301 30.9872 176.71 31.2571C177.12 31.5225 177.448 31.8846 177.696 32.3434C177.947 32.8022 178.073 33.3757 178.073 34.0639V41H175.725V39.5763H175.644C175.496 39.8642 175.287 40.1341 175.017 40.386C174.752 40.6334 174.416 40.8336 174.012 40.9865C173.611 41.1349 173.141 41.2092 172.601 41.2092ZM173.236 39.4144C173.726 39.4144 174.151 39.3177 174.511 39.1243C174.871 38.9264 175.147 38.6655 175.341 38.3416C175.539 38.0178 175.638 37.6647 175.638 37.2823V36.0611C175.561 36.1241 175.431 36.1825 175.246 36.2365C175.066 36.2905 174.864 36.3377 174.639 36.3782C174.414 36.4187 174.192 36.4547 173.971 36.4862C173.751 36.5176 173.56 36.5446 173.398 36.5671C173.033 36.6166 172.707 36.6976 172.419 36.81C172.131 36.9225 171.904 37.0799 171.738 37.2823C171.571 37.4802 171.488 37.7366 171.488 38.0515C171.488 38.5013 171.652 38.8409 171.981 39.0703C172.309 39.2997 172.727 39.4144 173.236 39.4144ZM181.676 44.8864C181.344 44.8864 181.035 44.8594 180.752 44.8054C180.473 44.7559 180.251 44.6974 180.084 44.63L180.651 42.7273C181.006 42.8307 181.323 42.8802 181.602 42.8757C181.881 42.8712 182.126 42.7835 182.338 42.6126C182.554 42.4461 182.736 42.1673 182.884 41.7759L183.093 41.2159L179.335 30.6364H181.926L184.315 38.4631H184.422L186.818 30.6364H189.415L185.266 42.255C185.072 42.8037 184.816 43.2738 184.497 43.6651C184.177 44.061 183.786 44.3623 183.323 44.5692C182.864 44.7807 182.315 44.8864 181.676 44.8864ZM204.009 33.3757L201.783 33.6186C201.72 33.3937 201.61 33.1823 201.452 32.9844C201.299 32.7865 201.092 32.6268 200.832 32.5053C200.571 32.3839 200.251 32.3232 199.873 32.3232C199.365 32.3232 198.938 32.4334 198.592 32.6538C198.25 32.8742 198.081 33.1598 198.085 33.5107C198.081 33.812 198.191 34.0572 198.416 34.2461C198.646 34.435 199.023 34.5902 199.55 34.7116L201.317 35.0895C202.298 35.3009 203.027 35.636 203.503 36.0948C203.985 36.5536 204.228 37.1541 204.232 37.8963C204.228 38.5485 204.036 39.1243 203.659 39.6236C203.285 40.1184 202.766 40.5052 202.1 40.7841C201.434 41.063 200.67 41.2024 199.806 41.2024C198.538 41.2024 197.516 40.937 196.743 40.4062C195.969 39.871 195.508 39.1265 195.36 38.1729L197.741 37.9435C197.849 38.4113 198.079 38.7644 198.43 39.0028C198.78 39.2412 199.237 39.3604 199.799 39.3604C200.38 39.3604 200.845 39.2412 201.196 39.0028C201.551 38.7644 201.729 38.4698 201.729 38.119C201.729 37.8221 201.614 37.5769 201.385 37.3835C201.16 37.1901 200.809 37.0417 200.332 36.9382L198.565 36.5671C197.57 36.3602 196.835 36.0116 196.358 35.5213C195.881 35.0265 195.645 34.4013 195.65 33.6456C195.645 33.0069 195.818 32.4536 196.169 31.9858C196.525 31.5135 197.017 31.1491 197.647 30.8928C198.281 30.6319 199.012 30.5014 199.84 30.5014C201.054 30.5014 202.01 30.7601 202.707 31.2773C203.409 31.7946 203.843 32.4941 204.009 33.3757ZM210.767 41.2024C209.755 41.2024 208.878 40.9798 208.135 40.5344C207.393 40.0891 206.817 39.4661 206.408 38.6655C206.003 37.8648 205.801 36.9292 205.801 35.8587C205.801 34.7881 206.003 33.8503 206.408 33.0451C206.817 32.2399 207.393 31.6147 208.135 31.1694C208.878 30.7241 209.755 30.5014 210.767 30.5014C211.779 30.5014 212.656 30.7241 213.398 31.1694C214.14 31.6147 214.714 32.2399 215.119 33.0451C215.528 33.8503 215.733 34.7881 215.733 35.8587C215.733 36.9292 215.528 37.8648 215.119 38.6655C214.714 39.4661 214.14 40.0891 213.398 40.5344C212.656 40.9798 211.779 41.2024 210.767 41.2024ZM210.78 39.2457C211.329 39.2457 211.788 39.0951 212.157 38.7937C212.526 38.4878 212.8 38.0785 212.98 37.5657C213.164 37.0529 213.256 36.4817 213.256 35.8519C213.256 35.2177 213.164 34.6442 212.98 34.1314C212.8 33.6141 212.526 33.2025 212.157 32.8967C211.788 32.5908 211.329 32.4379 210.78 32.4379C210.218 32.4379 209.75 32.5908 209.377 32.8967C209.008 33.2025 208.731 33.6141 208.547 34.1314C208.367 34.6442 208.277 35.2177 208.277 35.8519C208.277 36.4817 208.367 37.0529 208.547 37.5657C208.731 38.0785 209.008 38.4878 209.377 38.7937C209.75 39.0951 210.218 39.2457 210.78 39.2457ZM217.806 41V30.6364H220.174V32.3636H220.282C220.471 31.7654 220.795 31.3043 221.254 30.9805C221.717 30.6521 222.245 30.4879 222.839 30.4879C222.974 30.4879 223.125 30.4947 223.291 30.5082C223.462 30.5172 223.604 30.5329 223.716 30.5554V32.8022C223.613 32.7662 223.449 32.7347 223.224 32.7077C223.003 32.6763 222.79 32.6605 222.583 32.6605C222.137 32.6605 221.737 32.7572 221.382 32.9506C221.031 33.1396 220.754 33.4027 220.552 33.7401C220.349 34.0774 220.248 34.4665 220.248 34.9073V41H217.806ZM231.071 30.6364V32.5256H225.113V30.6364H231.071ZM226.584 28.1534H229.026V37.8828C229.026 38.2112 229.076 38.4631 229.175 38.6385C229.278 38.8094 229.413 38.9264 229.58 38.9893C229.746 39.0523 229.93 39.0838 230.133 39.0838C230.286 39.0838 230.425 39.0726 230.551 39.0501C230.682 39.0276 230.781 39.0073 230.848 38.9893L231.26 40.8988C231.129 40.9438 230.942 40.9933 230.7 41.0472C230.461 41.1012 230.169 41.1327 229.822 41.1417C229.211 41.1597 228.66 41.0675 228.169 40.8651C227.679 40.6581 227.29 40.3388 227.002 39.907C226.719 39.4751 226.579 38.9354 226.584 38.2876V28.1534ZM233.113 41V30.6364H235.556V41H233.113ZM234.341 29.1655C233.955 29.1655 233.622 29.0373 233.343 28.7809C233.064 28.52 232.924 28.2074 232.924 27.843C232.924 27.4742 233.064 27.1616 233.343 26.9052C233.622 26.6443 233.955 26.5138 234.341 26.5138C234.733 26.5138 235.066 26.6443 235.34 26.9052C235.619 27.1616 235.758 27.4742 235.758 27.843C235.758 28.2074 235.619 28.52 235.34 28.7809C235.066 29.0373 234.733 29.1655 234.341 29.1655ZM240.51 34.9276V41H238.067V30.6364H240.402V32.3974H240.523C240.762 31.8171 241.142 31.3561 241.664 31.0142C242.19 30.6723 242.84 30.5014 243.614 30.5014C244.329 30.5014 244.952 30.6544 245.483 30.9602C246.018 31.2661 246.432 31.7092 246.724 32.2894C247.021 32.8697 247.167 33.5736 247.163 34.4013V41H244.72V34.7791C244.72 34.0864 244.54 33.5444 244.18 33.1531C243.825 32.7617 243.333 32.5661 242.703 32.5661C242.275 32.5661 241.895 32.6605 241.562 32.8494C241.234 33.0339 240.975 33.3015 240.787 33.6523C240.602 34.0032 240.51 34.4283 240.51 34.9276ZM254.153 45.1023C253.276 45.1023 252.522 44.9831 251.892 44.7447C251.263 44.5108 250.757 44.1959 250.374 43.8001C249.992 43.4042 249.727 42.9657 249.578 42.4844L251.778 41.9513C251.877 42.1538 252.021 42.3539 252.21 42.5518C252.398 42.7543 252.653 42.9207 252.972 43.0511C253.296 43.1861 253.703 43.2536 254.193 43.2536C254.886 43.2536 255.459 43.0849 255.914 42.7475C256.368 42.4147 256.595 41.8659 256.595 41.1012V39.1378H256.474C256.348 39.3897 256.163 39.6483 255.92 39.9137C255.682 40.1791 255.365 40.4018 254.969 40.5817C254.578 40.7616 254.085 40.8516 253.491 40.8516C252.695 40.8516 251.973 40.6649 251.326 40.2915C250.682 39.9137 250.17 39.3514 249.787 38.6048C249.409 37.8536 249.221 36.9135 249.221 35.7844C249.221 34.6464 249.409 33.6861 249.787 32.9034C250.17 32.1162 250.685 31.5202 251.332 31.1154C251.98 30.7061 252.702 30.5014 253.498 30.5014C254.105 30.5014 254.605 30.6049 254.996 30.8118C255.392 31.0142 255.707 31.2594 255.941 31.5472C256.175 31.8306 256.352 32.0982 256.474 32.3501H256.609V30.6364H259.017V41.1687C259.017 42.0548 258.806 42.788 258.383 43.3683C257.96 43.9485 257.382 44.3826 256.649 44.6705C255.916 44.9583 255.084 45.1023 254.153 45.1023ZM254.173 38.9354C254.69 38.9354 255.131 38.8094 255.495 38.5575C255.86 38.3056 256.136 37.9435 256.325 37.4712C256.514 36.9989 256.609 36.4322 256.609 35.771C256.609 35.1187 256.514 34.5475 256.325 34.0572C256.141 33.5669 255.866 33.1868 255.502 32.9169C255.142 32.6425 254.699 32.5053 254.173 32.5053C253.629 32.5053 253.174 32.647 252.81 32.9304C252.446 33.2138 252.171 33.6029 251.987 34.0977C251.802 34.5879 251.71 35.1457 251.71 35.771C251.71 36.4052 251.802 36.9607 251.987 37.4375C252.176 37.9098 252.452 38.2786 252.817 38.544C253.186 38.8049 253.638 38.9354 254.173 38.9354Z" fill="black"/>
</g>
<defs>
<clipPath id="clip0_7_99">
<rect width="400" height="220" fill="white"/>
</clipPath>
</defs>
</svg>
