<svg width="400" height="220" viewBox="0 0 400 220" fill="none" xmlns="http://www.w3.org/2000/svg">
<g clip-path="url(#clip0_7_37)">
<path d="M0 20C0 8.9543 8.95431 0 20 0H380C391.046 0 400 8.95431 400 20V200C400 211.046 391.046 220 380 220H20C8.95431 220 0 211.046 0 200V20Z" fill="white"/>
<path d="M201.529 80.8V92H199.449V82.544H197.081V80.8H201.529Z" fill="#3D3D3D"/>
<path d="M219 86C219 75.5066 210.493 67 200 67C189.507 67 181 75.5066 181 86C181 96.4934 189.507 105 200 105C210.493 105 219 96.4934 219 86Z" stroke="#0032FF" stroke-width="2"/>
<path d="M145.529 120.8V132H143.449V122.544H141.081V120.8H145.529Z" fill="#3D3D3D"/>
<path d="M163 126C163 115.507 154.493 107 144 107C133.507 107 125 115.507 125 126C125 136.493 133.507 145 144 145C154.493 145 163 136.493 163 126Z" stroke="#0032FF" stroke-width="2"/>
<path d="M260.16 130.24V132H251.904V130.608L256.352 126.384C256.853 125.904 257.189 125.488 257.36 125.136C257.541 124.773 257.632 124.416 257.632 124.064C257.632 123.541 257.456 123.141 257.104 122.864C256.752 122.587 256.234 122.448 255.552 122.448C254.41 122.448 253.536 122.837 252.928 123.616L251.472 122.496C251.909 121.909 252.496 121.456 253.232 121.136C253.978 120.805 254.81 120.64 255.728 120.64C256.944 120.64 257.914 120.928 258.64 121.504C259.365 122.08 259.728 122.864 259.728 123.856C259.728 124.464 259.6 125.035 259.344 125.568C259.088 126.101 258.597 126.709 257.872 127.392L254.88 130.24H260.16Z" fill="#3D3D3D"/>
<path d="M275 126C275 115.507 266.493 107 256 107C245.507 107 237 115.507 237 126C237 136.493 245.507 145 256 145C266.493 145 275 136.493 275 126Z" stroke="#0032FF" stroke-width="2"/>
<path d="M116.816 173.424C117.85 173.552 118.64 173.904 119.184 174.48C119.728 175.056 120 175.776 120 176.64C120 177.291 119.834 177.883 119.504 178.416C119.173 178.949 118.672 179.376 118 179.696C117.338 180.005 116.528 180.16 115.568 180.16C114.768 180.16 113.994 180.048 113.248 179.824C112.512 179.589 111.882 179.269 111.36 178.864L112.256 177.248C112.661 177.589 113.152 177.861 113.728 178.064C114.314 178.256 114.917 178.352 115.536 178.352C116.272 178.352 116.848 178.203 117.264 177.904C117.69 177.595 117.904 177.179 117.904 176.656C117.904 176.133 117.701 175.728 117.296 175.44C116.901 175.141 116.293 174.992 115.472 174.992H114.448V173.568L116.992 170.544H111.904V168.8H119.536V170.192L116.816 173.424Z" fill="#3D3D3D"/>
<path d="M135 174C135 163.507 126.493 155 116 155C105.507 155 97 163.507 97 174C97 184.493 105.507 193 116 193C126.493 193 135 184.493 135 174Z" stroke="#0032FF" stroke-width="2"/>
<path d="M171.536 173.136C173.115 173.136 174.283 173.445 175.04 174.064C175.797 174.672 176.176 175.504 176.176 176.56C176.176 177.232 176.011 177.84 175.68 178.384C175.349 178.928 174.853 179.36 174.192 179.68C173.531 180 172.715 180.16 171.744 180.16C170.944 180.16 170.171 180.048 169.424 179.824C168.677 179.589 168.048 179.269 167.536 178.864L168.416 177.248C168.832 177.589 169.328 177.861 169.904 178.064C170.491 178.256 171.093 178.352 171.712 178.352C172.448 178.352 173.024 178.203 173.44 177.904C173.867 177.595 174.08 177.173 174.08 176.64C174.08 176.064 173.851 175.632 173.392 175.344C172.944 175.045 172.171 174.896 171.072 174.896H168.368L168.944 168.8H175.52V170.544H170.704L170.464 173.136H171.536Z" fill="#3D3D3D"/>
<path d="M191 174C191 163.507 182.493 155 172 155C161.507 155 153 163.507 153 174C153 184.493 161.507 193 172 193C182.493 193 191 184.493 191 174Z" stroke="#0032FF" stroke-width="2"/>
<path d="M230.749 174.112C231.336 174.379 231.784 174.741 232.093 175.2C232.413 175.648 232.573 176.176 232.573 176.784C232.573 177.467 232.381 178.064 231.997 178.576C231.624 179.088 231.091 179.483 230.397 179.76C229.704 180.027 228.899 180.16 227.981 180.16C227.064 180.16 226.259 180.027 225.565 179.76C224.883 179.483 224.355 179.088 223.981 178.576C223.608 178.064 223.421 177.467 223.421 176.784C223.421 176.176 223.576 175.648 223.885 175.2C224.195 174.741 224.637 174.379 225.213 174.112C224.765 173.867 224.419 173.547 224.173 173.152C223.939 172.747 223.821 172.283 223.821 171.76C223.821 171.131 223.992 170.581 224.333 170.112C224.685 169.643 225.176 169.28 225.805 169.024C226.435 168.768 227.16 168.64 227.981 168.64C228.813 168.64 229.544 168.768 230.173 169.024C230.803 169.28 231.293 169.643 231.645 170.112C231.997 170.581 232.173 171.131 232.173 171.76C232.173 172.283 232.051 172.741 231.805 173.136C231.56 173.531 231.208 173.856 230.749 174.112ZM227.981 170.272C227.331 170.272 226.813 170.411 226.429 170.688C226.056 170.965 225.869 171.355 225.869 171.856C225.869 172.336 226.056 172.72 226.429 173.008C226.813 173.285 227.331 173.424 227.981 173.424C228.643 173.424 229.165 173.285 229.549 173.008C229.933 172.72 230.125 172.336 230.125 171.856C230.125 171.355 229.928 170.965 229.533 170.688C229.149 170.411 228.632 170.272 227.981 170.272ZM227.981 178.528C228.749 178.528 229.357 178.368 229.805 178.048C230.253 177.728 230.477 177.285 230.477 176.72C230.477 176.165 230.253 175.728 229.805 175.408C229.357 175.088 228.749 174.928 227.981 174.928C227.213 174.928 226.611 175.088 226.173 175.408C225.736 175.728 225.517 176.165 225.517 176.72C225.517 177.285 225.736 177.728 226.173 178.048C226.611 178.368 227.213 178.528 227.981 178.528Z" fill="#3D3D3D"/>
<path d="M247 174C247 163.507 238.493 155 228 155C217.507 155 209 163.507 209 174C209 184.493 217.507 193 228 193C238.493 193 247 184.493 247 174Z" stroke="#0032FF" stroke-width="2"/>
<path d="M280.873 168.8V180H278.793V170.544H276.425V168.8H280.873ZM287.863 173.424C288.897 173.552 289.687 173.904 290.231 174.48C290.775 175.056 291.047 175.776 291.047 176.64C291.047 177.291 290.881 177.883 290.551 178.416C290.22 178.949 289.719 179.376 289.047 179.696C288.385 180.005 287.575 180.16 286.615 180.16C285.815 180.16 285.041 180.048 284.295 179.824C283.559 179.589 282.929 179.269 282.407 178.864L283.303 177.248C283.708 177.589 284.199 177.861 284.775 178.064C285.361 178.256 285.964 178.352 286.583 178.352C287.319 178.352 287.895 178.203 288.311 177.904C288.737 177.595 288.951 177.179 288.951 176.656C288.951 176.133 288.748 175.728 288.343 175.44C287.948 175.141 287.34 174.992 286.519 174.992H285.495V173.568L288.039 170.544H282.951V168.8H290.583V170.192L287.863 173.424Z" fill="#3D3D3D"/>
<path d="M303 174C303 163.507 294.493 155 284 155C273.507 155 265 163.507 265 174C265 184.493 273.507 193 284 193C294.493 193 303 184.493 303 174Z" stroke="#0032FF" stroke-width="2"/>
<path d="M20 1H380V-1H20V1ZM399 20V200H401V20H399ZM380 219H20V221H380V219ZM1 200V20H-1V200H1ZM20 219C9.50659 219 1 210.493 1 200H-1C-1 211.598 8.40203 221 20 221V219ZM399 200C399 210.493 390.493 219 380 219V221C391.598 221 401 211.598 401 200H399ZM380 1C390.493 1 399 9.50659 399 20H401C401 8.40202 391.598 -1 380 -1V1ZM20 -1C8.40202 -1 -1 8.40201 -1 20H1C1 9.50658 9.50659 1 20 1V-1Z" fill="#141414"/>
<path d="M108.46 41V27.1818H117.312V29.2802H110.963V33.0316H116.705V35.13H110.963V41H108.46ZM119.484 41V30.6364H121.927V41H119.484ZM120.712 29.1655C120.326 29.1655 119.993 29.0373 119.714 28.7809C119.435 28.52 119.296 28.2074 119.296 27.843C119.296 27.4742 119.435 27.1616 119.714 26.9052C119.993 26.6443 120.326 26.5138 120.712 26.5138C121.104 26.5138 121.437 26.6443 121.711 26.9052C121.99 27.1616 122.129 27.4742 122.129 27.843C122.129 28.2074 121.99 28.52 121.711 28.7809C121.437 29.0373 121.104 29.1655 120.712 29.1655ZM124.547 41V27.1818H126.989V32.3501H127.09C127.216 32.0982 127.394 31.8306 127.623 31.5472C127.853 31.2594 128.163 31.0142 128.554 30.8118C128.946 30.6049 129.445 30.5014 130.052 30.5014C130.853 30.5014 131.575 30.7061 132.218 31.1154C132.866 31.5202 133.379 32.1207 133.756 32.9169C134.139 33.7086 134.33 34.6802 134.33 35.8317C134.33 36.9697 134.143 37.9368 133.77 38.733C133.397 39.5291 132.888 40.1364 132.245 40.5547C131.602 40.973 130.873 41.1822 130.059 41.1822C129.465 41.1822 128.973 41.0832 128.581 40.8853C128.19 40.6874 127.875 40.449 127.637 40.1701C127.403 39.8867 127.221 39.6191 127.09 39.3672H126.949V41H124.547ZM126.942 35.8182C126.942 36.4884 127.036 37.0754 127.225 37.5792C127.419 38.083 127.695 38.4766 128.055 38.7599C128.419 39.0388 128.86 39.1783 129.377 39.1783C129.917 39.1783 130.369 39.0343 130.734 38.7464C131.098 38.4541 131.372 38.056 131.557 37.5522C131.746 37.0439 131.84 36.4659 131.84 35.8182C131.84 35.175 131.748 34.6037 131.564 34.1044C131.379 33.6051 131.105 33.2138 130.74 32.9304C130.376 32.647 129.922 32.5053 129.377 32.5053C128.856 32.5053 128.413 32.6425 128.048 32.9169C127.684 33.1913 127.407 33.5759 127.218 34.0707C127.034 34.5655 126.942 35.148 126.942 35.8182ZM140.927 41.2024C139.915 41.2024 139.038 40.9798 138.296 40.5344C137.553 40.0891 136.978 39.4661 136.568 38.6655C136.163 37.8648 135.961 36.9292 135.961 35.8587C135.961 34.7881 136.163 33.8503 136.568 33.0451C136.978 32.2399 137.553 31.6147 138.296 31.1694C139.038 30.7241 139.915 30.5014 140.927 30.5014C141.939 30.5014 142.816 30.7241 143.558 31.1694C144.301 31.6147 144.874 32.2399 145.279 33.0451C145.688 33.8503 145.893 34.7881 145.893 35.8587C145.893 36.9292 145.688 37.8648 145.279 38.6655C144.874 39.4661 144.301 40.0891 143.558 40.5344C142.816 40.9798 141.939 41.2024 140.927 41.2024ZM140.94 39.2457C141.489 39.2457 141.948 39.0951 142.317 38.7937C142.686 38.4878 142.96 38.0785 143.14 37.5657C143.324 37.0529 143.417 36.4817 143.417 35.8519C143.417 35.2177 143.324 34.6442 143.14 34.1314C142.96 33.6141 142.686 33.2025 142.317 32.8967C141.948 32.5908 141.489 32.4379 140.94 32.4379C140.378 32.4379 139.91 32.5908 139.537 32.8967C139.168 33.2025 138.892 33.6141 138.707 34.1314C138.527 34.6442 138.437 35.2177 138.437 35.8519C138.437 36.4817 138.527 37.0529 138.707 37.5657C138.892 38.0785 139.168 38.4878 139.537 38.7937C139.91 39.0951 140.378 39.2457 140.94 39.2457ZM150.408 34.9276V41H147.966V30.6364H150.3V32.3974H150.422C150.66 31.8171 151.04 31.3561 151.562 31.0142C152.088 30.6723 152.738 30.5014 153.512 30.5014C154.227 30.5014 154.85 30.6544 155.381 30.9602C155.916 31.2661 156.33 31.7092 156.623 32.2894C156.919 32.8697 157.066 33.5736 157.061 34.4013V41H154.619V34.7791C154.619 34.0864 154.439 33.5444 154.079 33.1531C153.723 32.7617 153.231 32.5661 152.601 32.5661C152.174 32.5661 151.794 32.6605 151.461 32.8494C151.133 33.0339 150.874 33.3015 150.685 33.6523C150.501 34.0032 150.408 34.4283 150.408 34.9276ZM162.526 41.2092C161.87 41.2092 161.278 41.0922 160.752 40.8583C160.23 40.6199 159.816 40.2691 159.51 39.8058C159.209 39.3424 159.058 38.7712 159.058 38.092C159.058 37.5072 159.166 37.0237 159.382 36.6413C159.598 36.259 159.893 35.9531 160.266 35.7237C160.639 35.4943 161.06 35.3211 161.528 35.2042C162 35.0827 162.488 34.995 162.992 34.9411C163.599 34.8781 164.092 34.8219 164.469 34.7724C164.847 34.7184 165.122 34.6374 165.293 34.5295C165.468 34.417 165.556 34.2438 165.556 34.0099V33.9695C165.556 33.4612 165.405 33.0676 165.104 32.7887C164.802 32.5098 164.368 32.3704 163.801 32.3704C163.203 32.3704 162.729 32.5008 162.378 32.7617C162.031 33.0226 161.798 33.3307 161.676 33.6861L159.396 33.3622C159.576 32.7325 159.872 32.2062 160.286 31.7834C160.7 31.3561 161.206 31.0367 161.804 30.8253C162.403 30.6094 163.064 30.5014 163.788 30.5014C164.287 30.5014 164.784 30.5599 165.279 30.6768C165.774 30.7938 166.226 30.9872 166.635 31.2571C167.045 31.5225 167.373 31.8846 167.62 32.3434C167.872 32.8022 167.998 33.3757 167.998 34.0639V41H165.65V39.5763H165.569C165.421 39.8642 165.212 40.1341 164.942 40.386C164.676 40.6334 164.341 40.8336 163.936 40.9865C163.536 41.1349 163.066 41.2092 162.526 41.2092ZM163.161 39.4144C163.651 39.4144 164.076 39.3177 164.436 39.1243C164.796 38.9264 165.072 38.6655 165.266 38.3416C165.464 38.0178 165.562 37.6647 165.562 37.2823V36.0611C165.486 36.1241 165.356 36.1825 165.171 36.2365C164.991 36.2905 164.789 36.3377 164.564 36.3782C164.339 36.4187 164.116 36.4547 163.896 36.4862C163.676 36.5176 163.484 36.5446 163.322 36.5671C162.958 36.6166 162.632 36.6976 162.344 36.81C162.056 36.9225 161.829 37.0799 161.663 37.2823C161.496 37.4802 161.413 37.7366 161.413 38.0515C161.413 38.5013 161.577 38.8409 161.906 39.0703C162.234 39.2997 162.652 39.4144 163.161 39.4144ZM174.975 41.2024C173.94 41.2024 173.052 40.9753 172.31 40.521C171.572 40.0666 171.003 39.4392 170.603 38.6385C170.207 37.8333 170.009 36.9067 170.009 35.8587C170.009 34.8061 170.211 33.8772 170.616 33.0721C171.021 32.2624 171.592 31.6327 172.33 31.1829C173.072 30.7286 173.949 30.5014 174.961 30.5014C175.802 30.5014 176.547 30.6566 177.195 30.967C177.847 31.2728 178.366 31.7069 178.753 32.2692C179.14 32.8269 179.36 33.4792 179.414 34.2259H177.08C176.985 33.7266 176.761 33.3105 176.405 32.9776C176.054 32.6403 175.584 32.4716 174.995 32.4716C174.496 32.4716 174.057 32.6065 173.679 32.8764C173.301 33.1418 173.007 33.5241 172.795 34.0234C172.589 34.5227 172.485 35.121 172.485 35.8182C172.485 36.5244 172.589 37.1316 172.795 37.6399C173.002 38.1437 173.292 38.5328 173.666 38.8072C174.044 39.0771 174.487 39.212 174.995 39.212C175.355 39.212 175.676 39.1445 175.96 39.0096C176.248 38.8701 176.488 38.67 176.682 38.4091C176.875 38.1482 177.008 37.8311 177.08 37.4577H179.414C179.356 38.1909 179.14 38.8409 178.767 39.4077C178.393 39.9699 177.885 40.4107 177.242 40.7301C176.599 41.045 175.843 41.2024 174.975 41.2024ZM185.941 41.2024C184.906 41.2024 184.018 40.9753 183.275 40.521C182.538 40.0666 181.969 39.4392 181.568 38.6385C181.173 37.8333 180.975 36.9067 180.975 35.8587C180.975 34.8061 181.177 33.8772 181.582 33.0721C181.987 32.2624 182.558 31.6327 183.296 31.1829C184.038 30.7286 184.915 30.5014 185.927 30.5014C186.768 30.5014 187.513 30.6566 188.16 30.967C188.813 31.2728 189.332 31.7069 189.719 32.2692C190.106 32.8269 190.326 33.4792 190.38 34.2259H188.046C187.951 33.7266 187.726 33.3105 187.371 32.9776C187.02 32.6403 186.55 32.4716 185.961 32.4716C185.462 32.4716 185.023 32.6065 184.645 32.8764C184.267 33.1418 183.973 33.5241 183.761 34.0234C183.554 34.5227 183.451 35.121 183.451 35.8182C183.451 36.5244 183.554 37.1316 183.761 37.6399C183.968 38.1437 184.258 38.5328 184.632 38.8072C185.009 39.0771 185.453 39.212 185.961 39.212C186.321 39.212 186.642 39.1445 186.926 39.0096C187.214 38.8701 187.454 38.67 187.648 38.4091C187.841 38.1482 187.974 37.8311 188.046 37.4577H190.38C190.322 38.1909 190.106 38.8409 189.733 39.4077C189.359 39.9699 188.851 40.4107 188.208 40.7301C187.564 41.045 186.809 41.2024 185.941 41.2024ZM192.386 41V30.6364H194.828V41H192.386ZM193.614 29.1655C193.227 29.1655 192.894 29.0373 192.615 28.7809C192.336 28.52 192.197 28.2074 192.197 27.843C192.197 27.4742 192.336 27.1616 192.615 26.9052C192.894 26.6443 193.227 26.5138 193.614 26.5138C194.005 26.5138 194.338 26.6443 194.612 26.9052C194.891 27.1616 195.031 27.4742 195.031 27.843C195.031 28.2074 194.891 28.52 194.612 28.7809C194.338 29.0373 194.005 29.1655 193.614 29.1655ZM209.67 30.9805C209.607 30.3912 209.342 29.9324 208.874 29.604C208.411 29.2757 207.808 29.1115 207.066 29.1115C206.544 29.1115 206.097 29.1902 205.723 29.3477C205.35 29.5051 205.064 29.7187 204.866 29.9886C204.668 30.2585 204.567 30.5666 204.563 30.913C204.563 31.2009 204.628 31.4505 204.758 31.6619C204.893 31.8733 205.076 32.0533 205.305 32.2017C205.534 32.3456 205.789 32.4671 206.067 32.5661C206.346 32.665 206.627 32.7482 206.911 32.8157L208.206 33.1396C208.728 33.261 209.23 33.4252 209.711 33.6321C210.197 33.839 210.631 34.0999 211.013 34.4148C211.4 34.7296 211.706 35.1097 211.931 35.555C212.156 36.0004 212.268 36.5221 212.268 37.1204C212.268 37.93 212.061 38.643 211.647 39.2592C211.233 39.871 210.635 40.35 209.853 40.6964C209.074 41.0382 208.132 41.2092 207.025 41.2092C205.95 41.2092 205.017 41.0427 204.225 40.7099C203.438 40.377 202.822 39.8912 202.377 39.2525C201.936 38.6138 201.697 37.8356 201.661 36.918H204.124C204.16 37.3993 204.309 37.7996 204.57 38.119C204.83 38.4383 205.17 38.6767 205.588 38.8342C206.011 38.9916 206.483 39.0703 207.005 39.0703C207.55 39.0703 208.026 38.9893 208.436 38.8274C208.849 38.661 209.173 38.4316 209.407 38.1392C209.641 37.8423 209.76 37.496 209.765 37.1001C209.76 36.7403 209.655 36.4434 209.448 36.2095C209.241 35.9711 208.951 35.7732 208.577 35.6158C208.208 35.4538 207.777 35.3099 207.282 35.1839L205.71 34.7791C204.572 34.4867 203.672 34.0437 203.011 33.4499C202.354 32.8517 202.026 32.0578 202.026 31.0682C202.026 30.254 202.246 29.5411 202.687 28.9293C203.132 28.3176 203.737 27.843 204.502 27.5057C205.267 27.1638 206.133 26.9929 207.1 26.9929C208.08 26.9929 208.939 27.1638 209.677 27.5057C210.419 27.843 211.002 28.3131 211.425 28.9158C211.847 29.5141 212.066 30.2023 212.079 30.9805H209.67ZM218.98 41.2024C217.941 41.2024 217.043 40.9865 216.288 40.5547C215.536 40.1184 214.958 39.5021 214.554 38.706C214.149 37.9053 213.946 36.9629 213.946 35.8789C213.946 34.8129 214.149 33.8772 214.554 33.0721C214.963 32.2624 215.534 31.6327 216.267 31.1829C217.001 30.7286 217.862 30.5014 218.852 30.5014C219.49 30.5014 220.093 30.6049 220.66 30.8118C221.231 31.0142 221.735 31.3291 222.171 31.7564C222.612 32.1837 222.958 32.728 223.21 33.3892C223.462 34.0459 223.588 34.8286 223.588 35.7372V36.4862H215.093V34.8398H221.247C221.242 34.372 221.141 33.956 220.943 33.5916C220.745 33.2228 220.469 32.9326 220.113 32.7212C219.762 32.5098 219.353 32.4041 218.885 32.4041C218.386 32.4041 217.947 32.5256 217.57 32.7685C217.192 33.0069 216.897 33.3217 216.686 33.7131C216.479 34.0999 216.373 34.525 216.369 34.9883V36.4254C216.369 37.0282 216.479 37.5455 216.699 37.9773C216.92 38.4046 217.228 38.733 217.624 38.9624C218.019 39.1873 218.483 39.2997 219.013 39.2997C219.369 39.2997 219.69 39.2502 219.978 39.1513C220.266 39.0478 220.516 38.8971 220.727 38.6992C220.939 38.5013 221.098 38.2562 221.206 37.9638L223.487 38.2202C223.343 38.8229 223.069 39.3492 222.664 39.799C222.263 40.2443 221.751 40.5907 221.125 40.8381C220.5 41.081 219.785 41.2024 218.98 41.2024ZM232.57 44.8864V39.3672H232.469C232.343 39.6191 232.161 39.8867 231.922 40.1701C231.684 40.449 231.369 40.6874 230.978 40.8853C230.587 41.0832 230.094 41.1822 229.5 41.1822C228.686 41.1822 227.957 40.973 227.314 40.5547C226.671 40.1364 226.163 39.5291 225.789 38.733C225.416 37.9368 225.229 36.9697 225.229 35.8317C225.229 34.6802 225.418 33.7086 225.796 32.9169C226.178 32.1207 226.693 31.5202 227.341 31.1154C227.989 30.7061 228.711 30.5014 229.507 30.5014C230.114 30.5014 230.614 30.6049 231.005 30.8118C231.396 31.0142 231.707 31.2594 231.936 31.5472C232.165 31.8306 232.343 32.0982 232.469 32.3501H232.617V30.6364H235.019V44.8864H232.57ZM230.182 39.1783C230.699 39.1783 231.14 39.0388 231.504 38.7599C231.869 38.4766 232.145 38.083 232.334 37.5792C232.523 37.0754 232.617 36.4884 232.617 35.8182C232.617 35.148 232.523 34.5655 232.334 34.0707C232.15 33.5759 231.875 33.1913 231.511 32.9169C231.151 32.6425 230.708 32.5053 230.182 32.5053C229.637 32.5053 229.183 32.647 228.819 32.9304C228.454 33.2138 228.18 33.6051 227.996 34.1044C227.811 34.6037 227.719 35.175 227.719 35.8182C227.719 36.4659 227.811 37.0439 227.996 37.5522C228.185 38.056 228.461 38.4541 228.826 38.7464C229.194 39.0343 229.646 39.1783 230.182 39.1783ZM244.135 36.6413V30.6364H246.577V41H244.209V39.158H244.101C243.867 39.7383 243.483 40.2128 242.947 40.5817C242.417 40.9505 241.762 41.1349 240.984 41.1349C240.305 41.1349 239.704 40.9843 239.182 40.6829C238.665 40.377 238.26 39.9339 237.968 39.3537C237.676 38.7689 237.529 38.0627 237.529 37.2351V30.6364H239.972V36.8572C239.972 37.514 240.152 38.0357 240.512 38.4226C240.871 38.8094 241.344 39.0028 241.929 39.0028C242.288 39.0028 242.637 38.9151 242.974 38.7397C243.312 38.5643 243.588 38.3034 243.804 37.957C244.025 37.6062 244.135 37.1676 244.135 36.6413ZM253.677 41.2024C252.638 41.2024 251.741 40.9865 250.985 40.5547C250.234 40.1184 249.656 39.5021 249.251 38.706C248.846 37.9053 248.644 36.9629 248.644 35.8789C248.644 34.8129 248.846 33.8772 249.251 33.0721C249.66 32.2624 250.231 31.6327 250.965 31.1829C251.698 30.7286 252.559 30.5014 253.549 30.5014C254.188 30.5014 254.79 30.6049 255.357 30.8118C255.928 31.0142 256.432 31.3291 256.868 31.7564C257.309 32.1837 257.656 32.728 257.907 33.3892C258.159 34.0459 258.285 34.8286 258.285 35.7372V36.4862H249.791V34.8398H255.944C255.94 34.372 255.838 33.956 255.64 33.5916C255.443 33.2228 255.166 32.9326 254.811 32.7212C254.46 32.5098 254.05 32.4041 253.583 32.4041C253.083 32.4041 252.645 32.5256 252.267 32.7685C251.889 33.0069 251.594 33.3217 251.383 33.7131C251.176 34.0999 251.07 34.525 251.066 34.9883V36.4254C251.066 37.0282 251.176 37.5455 251.396 37.9773C251.617 38.4046 251.925 38.733 252.321 38.9624C252.717 39.1873 253.18 39.2997 253.711 39.2997C254.066 39.2997 254.388 39.2502 254.676 39.1513C254.963 39.0478 255.213 38.8971 255.425 38.6992C255.636 38.5013 255.796 38.2562 255.904 37.9638L258.184 38.2202C258.04 38.8229 257.766 39.3492 257.361 39.799C256.961 40.2443 256.448 40.5907 255.823 40.8381C255.197 41.081 254.482 41.2024 253.677 41.2024ZM262.794 34.9276V41H260.352V30.6364H262.686V32.3974H262.808C263.046 31.8171 263.426 31.3561 263.948 31.0142C264.474 30.6723 265.124 30.5014 265.898 30.5014C266.613 30.5014 267.236 30.6544 267.767 30.9602C268.302 31.2661 268.716 31.7092 269.008 32.2894C269.305 32.8697 269.451 33.5736 269.447 34.4013V41H267.004V34.7791C267.004 34.0864 266.824 33.5444 266.465 33.1531C266.109 32.7617 265.617 32.5661 264.987 32.5661C264.56 32.5661 264.18 32.6605 263.847 32.8494C263.518 33.0339 263.26 33.3015 263.071 33.6523C262.886 34.0032 262.794 34.4283 262.794 34.9276ZM276.45 41.2024C275.416 41.2024 274.527 40.9753 273.785 40.521C273.048 40.0666 272.479 39.4392 272.078 38.6385C271.682 37.8333 271.484 36.9067 271.484 35.8587C271.484 34.8061 271.687 33.8772 272.092 33.0721C272.497 32.2624 273.068 31.6327 273.805 31.1829C274.548 30.7286 275.425 30.5014 276.437 30.5014C277.278 30.5014 278.022 30.6566 278.67 30.967C279.322 31.2728 279.842 31.7069 280.229 32.2692C280.616 32.8269 280.836 33.4792 280.89 34.2259H278.555C278.461 33.7266 278.236 33.3105 277.881 32.9776C277.53 32.6403 277.06 32.4716 276.471 32.4716C275.971 32.4716 275.533 32.6065 275.155 32.8764C274.777 33.1418 274.482 33.5241 274.271 34.0234C274.064 34.5227 273.961 35.121 273.961 35.8182C273.961 36.5244 274.064 37.1316 274.271 37.6399C274.478 38.1437 274.768 38.5328 275.141 38.8072C275.519 39.0771 275.962 39.212 276.471 39.212C276.83 39.212 277.152 39.1445 277.435 39.0096C277.723 38.8701 277.964 38.67 278.157 38.4091C278.351 38.1482 278.484 37.8311 278.555 37.4577H280.89C280.832 38.1909 280.616 38.8409 280.242 39.4077C279.869 39.9699 279.361 40.4107 278.717 40.7301C278.074 41.045 277.319 41.2024 276.45 41.2024ZM287.484 41.2024C286.445 41.2024 285.547 40.9865 284.792 40.5547C284.04 40.1184 283.462 39.5021 283.058 38.706C282.653 37.9053 282.45 36.9629 282.45 35.8789C282.45 34.8129 282.653 33.8772 283.058 33.0721C283.467 32.2624 284.038 31.6327 284.771 31.1829C285.504 30.7286 286.366 30.5014 287.355 30.5014C287.994 30.5014 288.597 30.6049 289.164 30.8118C289.735 31.0142 290.239 31.3291 290.675 31.7564C291.116 32.1837 291.462 32.728 291.714 33.3892C291.966 34.0459 292.092 34.8286 292.092 35.7372V36.4862H283.597V34.8398H289.751C289.746 34.372 289.645 33.956 289.447 33.5916C289.249 33.2228 288.973 32.9326 288.617 32.7212C288.266 32.5098 287.857 32.4041 287.389 32.4041C286.89 32.4041 286.451 32.5256 286.074 32.7685C285.696 33.0069 285.401 33.3217 285.19 33.7131C284.983 34.0999 284.877 34.525 284.873 34.9883V36.4254C284.873 37.0282 284.983 37.5455 285.203 37.9773C285.424 38.4046 285.732 38.733 286.127 38.9624C286.523 39.1873 286.987 39.2997 287.517 39.2997C287.873 39.2997 288.194 39.2502 288.482 39.1513C288.77 39.0478 289.02 38.8971 289.231 38.6992C289.443 38.5013 289.602 38.2562 289.71 37.9638L291.991 38.2202C291.847 38.8229 291.572 39.3492 291.168 39.799C290.767 40.2443 290.254 40.5907 289.629 40.8381C289.004 41.081 288.289 41.2024 287.484 41.2024Z" fill="black"/>
</g>
<defs>
<clipPath id="clip0_7_37">
<rect width="400" height="220" fill="white"/>
</clipPath>
</defs>
</svg>
