<svg width="400" height="220" viewBox="0 0 400 220" fill="none" xmlns="http://www.w3.org/2000/svg">
<g clip-path="url(#clip0_7_194)">
<path d="M0 20C0 8.9543 8.95431 0 20 0H380C391.046 0 400 8.95431 400 20V200C400 211.046 391.046 220 380 220H20C8.95431 220 0 211.046 0 200V20Z" fill="white"/>
<path d="M89.5291 118.8V130H87.4491V120.544H85.0811V118.8H89.5291Z" fill="#3D3D3D"/>
<path d="M107 124C107 113.507 98.4934 105 88 105C77.5066 105 69 113.507 69 124C69 134.493 77.5066 143 88 143C98.4934 143 107 134.493 107 124Z" stroke="#0032FF" stroke-width="2"/>
<path d="M87.9991 166.096C87.1351 166.096 86.3618 165.867 85.6791 165.408C85.0071 164.949 84.4791 164.293 84.0951 163.44C83.7218 162.576 83.5351 161.563 83.5351 160.4C83.5351 159.237 83.7218 158.229 84.0951 157.376C84.4791 156.512 85.0071 155.851 85.6791 155.392C86.3618 154.933 87.1351 154.704 87.9991 154.704C88.8631 154.704 89.6311 154.933 90.3031 155.392C90.9858 155.851 91.5191 156.512 91.9031 157.376C92.2871 158.229 92.4791 159.237 92.4791 160.4C92.4791 161.563 92.2871 162.576 91.9031 163.44C91.5191 164.293 90.9858 164.949 90.3031 165.408C89.6311 165.867 88.8631 166.096 87.9991 166.096ZM87.9991 165.04C88.6498 165.04 89.2205 164.859 89.7111 164.496C90.2125 164.133 90.6018 163.605 90.8791 162.912C91.1565 162.219 91.2951 161.381 91.2951 160.4C91.2951 159.419 91.1565 158.581 90.8791 157.888C90.6018 157.195 90.2125 156.667 89.7111 156.304C89.2205 155.941 88.6498 155.76 87.9991 155.76C87.3485 155.76 86.7725 155.941 86.2711 156.304C85.7805 156.667 85.3965 157.195 85.1191 157.888C84.8418 158.581 84.7031 159.419 84.7031 160.4C84.7031 161.381 84.8418 162.219 85.1191 162.912C85.3965 163.605 85.7805 164.133 86.2711 164.496C86.7725 164.859 87.3485 165.04 87.9991 165.04Z" fill="#3D3D3D"/>
<path d="M148.16 128.24V130H139.904V128.608L144.352 124.384C144.853 123.904 145.189 123.488 145.36 123.136C145.541 122.773 145.632 122.416 145.632 122.064C145.632 121.541 145.456 121.141 145.104 120.864C144.752 120.587 144.234 120.448 143.552 120.448C142.41 120.448 141.536 120.837 140.928 121.616L139.472 120.496C139.909 119.909 140.496 119.456 141.232 119.136C141.978 118.805 142.81 118.64 143.728 118.64C144.944 118.64 145.914 118.928 146.64 119.504C147.365 120.08 147.728 120.864 147.728 121.856C147.728 122.464 147.6 123.035 147.344 123.568C147.088 124.101 146.597 124.709 145.872 125.392L142.88 128.24H148.16Z" fill="#3D3D3D"/>
<path d="M163 124C163 113.507 154.493 105 144 105C133.507 105 125 113.507 125 124C125 134.493 133.507 143 144 143C154.493 143 163 134.493 163 124Z" stroke="#0032FF" stroke-width="2"/>
<path d="M145.045 154.8V166H143.893V155.824H141.253V154.8H145.045Z" fill="#3D3D3D"/>
<path d="M200.816 123.424C201.85 123.552 202.64 123.904 203.184 124.48C203.728 125.056 204 125.776 204 126.64C204 127.291 203.834 127.883 203.504 128.416C203.173 128.949 202.672 129.376 202 129.696C201.338 130.005 200.528 130.16 199.568 130.16C198.768 130.16 197.994 130.048 197.248 129.824C196.512 129.589 195.882 129.269 195.36 128.864L196.256 127.248C196.661 127.589 197.152 127.861 197.728 128.064C198.314 128.256 198.917 128.352 199.536 128.352C200.272 128.352 200.848 128.203 201.264 127.904C201.69 127.595 201.904 127.179 201.904 126.656C201.904 126.133 201.701 125.728 201.296 125.44C200.901 125.141 200.293 124.992 199.472 124.992H198.448V123.568L200.992 120.544H195.904V118.8H203.536V120.192L200.816 123.424Z" fill="#3D3D3D"/>
<path d="M219 124C219 113.507 210.493 105 200 105C189.507 105 181 113.507 181 124C181 134.493 189.507 143 200 143C210.493 143 219 134.493 219 124Z" stroke="#0032FF" stroke-width="2"/>
<path d="M203.933 164.976V166H196.077V165.184L200.733 160.624C201.32 160.048 201.714 159.552 201.917 159.136C202.13 158.709 202.237 158.283 202.237 157.856C202.237 157.195 202.008 156.683 201.549 156.32C201.101 155.947 200.456 155.76 199.613 155.76C198.301 155.76 197.282 156.176 196.557 157.008L195.741 156.304C196.178 155.792 196.733 155.397 197.405 155.12C198.088 154.843 198.856 154.704 199.709 154.704C200.85 154.704 201.752 154.976 202.413 155.52C203.085 156.053 203.421 156.789 203.421 157.728C203.421 158.304 203.293 158.859 203.037 159.392C202.781 159.925 202.296 160.539 201.581 161.232L197.773 164.976H203.933Z" fill="#3D3D3D"/>
<path d="M261.258 127.456H259.274V130H257.258V127.456H251.114V126.016L256.634 118.8H258.858L253.658 125.696H257.322V123.44H259.274V125.696H261.258V127.456Z" fill="#3D3D3D"/>
<path d="M275 124C275 113.507 266.493 105 256 105C245.507 105 237 113.507 237 124C237 134.493 245.507 143 256 143C266.493 143 275 134.493 275 124Z" stroke="#0032FF" stroke-width="2"/>
<path d="M256.124 159.6C257.298 159.664 258.188 159.984 258.796 160.56C259.415 161.125 259.724 161.867 259.724 162.784C259.724 163.424 259.57 163.995 259.26 164.496C258.951 164.987 258.492 165.376 257.884 165.664C257.276 165.952 256.535 166.096 255.66 166.096C254.85 166.096 254.082 165.968 253.356 165.712C252.642 165.445 252.066 165.093 251.628 164.656L252.188 163.744C252.562 164.128 253.058 164.443 253.676 164.688C254.295 164.923 254.956 165.04 255.66 165.04C256.578 165.04 257.287 164.843 257.788 164.448C258.29 164.043 258.54 163.488 258.54 162.784C258.54 162.091 258.29 161.547 257.788 161.152C257.287 160.757 256.53 160.56 255.516 160.56H254.716V159.712L257.82 155.824H252.092V154.8H259.292V155.616L256.124 159.6Z" fill="#3D3D3D"/>
<path d="M304.521 93.504C304.297 93.696 304.02 93.8453 303.689 93.952C303.358 94.048 303.017 94.096 302.665 94.096C301.812 94.096 301.15 93.8667 300.681 93.408C300.212 92.9493 299.977 92.2933 299.977 91.44V86.784H298.537V85.52H299.977V83.664H301.513V85.52H303.945V86.784H301.513V91.376C301.513 91.8347 301.625 92.1867 301.849 92.432C302.084 92.6773 302.414 92.8 302.841 92.8C303.31 92.8 303.71 92.6667 304.041 92.4L304.521 93.504ZM309.729 94.096C308.886 94.096 308.129 93.9093 307.457 93.536C306.785 93.1627 306.257 92.6507 305.873 92C305.499 91.3387 305.313 90.592 305.313 89.76C305.313 88.928 305.499 88.1867 305.873 87.536C306.257 86.8747 306.785 86.3627 307.457 86C308.129 85.6267 308.886 85.44 309.729 85.44C310.571 85.44 311.323 85.6267 311.985 86C312.657 86.3627 313.179 86.8747 313.553 87.536C313.937 88.1867 314.129 88.928 314.129 89.76C314.129 90.592 313.937 91.3387 313.553 92C313.179 92.6507 312.657 93.1627 311.985 93.536C311.323 93.9093 310.571 94.096 309.729 94.096ZM309.729 92.752C310.273 92.752 310.758 92.6293 311.185 92.384C311.622 92.128 311.963 91.776 312.209 91.328C312.454 90.8693 312.577 90.3467 312.577 89.76C312.577 89.1733 312.454 88.656 312.209 88.208C311.963 87.7493 311.622 87.3973 311.185 87.152C310.758 86.9067 310.273 86.784 309.729 86.784C309.185 86.784 308.694 86.9067 308.257 87.152C307.83 87.3973 307.489 87.7493 307.233 88.208C306.987 88.656 306.865 89.1733 306.865 89.76C306.865 90.3467 306.987 90.8693 307.233 91.328C307.489 91.776 307.83 92.128 308.257 92.384C308.694 92.6293 309.185 92.752 309.729 92.752ZM320.749 85.44C321.57 85.44 322.306 85.6213 322.957 85.984C323.608 86.3467 324.114 86.8533 324.477 87.504C324.85 88.1547 325.037 88.9067 325.037 89.76C325.037 90.6133 324.85 91.3707 324.477 92.032C324.114 92.6827 323.608 93.1893 322.957 93.552C322.306 93.9147 321.57 94.096 320.749 94.096C320.141 94.096 319.581 93.9787 319.069 93.744C318.568 93.5093 318.141 93.168 317.789 92.72V97.104H316.253V85.52H317.725V86.864C318.066 86.3947 318.498 86.0427 319.021 85.808C319.544 85.5627 320.12 85.44 320.749 85.44ZM320.621 92.752C321.165 92.752 321.65 92.6293 322.077 92.384C322.514 92.128 322.856 91.776 323.101 91.328C323.357 90.8693 323.485 90.3467 323.485 89.76C323.485 89.1733 323.357 88.656 323.101 88.208C322.856 87.7493 322.514 87.3973 322.077 87.152C321.65 86.9067 321.165 86.784 320.621 86.784C320.088 86.784 319.602 86.912 319.165 87.168C318.738 87.4133 318.397 87.76 318.141 88.208C317.896 88.656 317.773 89.1733 317.773 89.76C317.773 90.3467 317.896 90.8693 318.141 91.328C318.386 91.776 318.728 92.128 319.165 92.384C319.602 92.6293 320.088 92.752 320.621 92.752Z" fill="#3D3D3D"/>
<path d="M311.536 123.136C313.115 123.136 314.283 123.445 315.04 124.064C315.797 124.672 316.176 125.504 316.176 126.56C316.176 127.232 316.011 127.84 315.68 128.384C315.349 128.928 314.853 129.36 314.192 129.68C313.531 130 312.715 130.16 311.744 130.16C310.944 130.16 310.171 130.048 309.424 129.824C308.677 129.589 308.048 129.269 307.536 128.864L308.416 127.248C308.832 127.589 309.328 127.861 309.904 128.064C310.491 128.256 311.093 128.352 311.712 128.352C312.448 128.352 313.024 128.203 313.44 127.904C313.867 127.595 314.08 127.173 314.08 126.64C314.08 126.064 313.851 125.632 313.392 125.344C312.944 125.045 312.171 124.896 311.072 124.896H308.368L308.944 118.8H315.52V120.544H310.704L310.464 123.136H311.536Z" fill="#3D3D3D"/>
<path d="M331 124C331 113.507 322.493 105 312 105C301.507 105 293 113.507 293 124C293 134.493 301.507 143 312 143C322.493 143 331 134.493 331 124Z" stroke="#0032FF" stroke-width="2"/>
<path d="M317.063 163.056H314.823V166H313.671V163.056H307.351V162.224L313.287 154.8H314.567L308.839 162.032H313.703V159.44H314.823V162.032H317.063V163.056Z" fill="#3D3D3D"/>
<path d="M20 1H380V-1H20V1ZM399 20V200H401V20H399ZM380 219H20V221H380V219ZM1 200V20H-1V200H1ZM20 219C9.50659 219 1 210.493 1 200H-1C-1 211.598 8.40203 221 20 221V219ZM399 200C399 210.493 390.493 219 380 219V221C391.598 221 401 211.598 401 200H399ZM380 1C390.493 1 399 9.50659 399 20H401C401 8.40202 391.598 -1 380 -1V1ZM20 -1C8.40202 -1 -1 8.40201 -1 20H1C1 9.50658 9.50659 1 20 1V-1Z" fill="#141414"/>
<path d="M182.748 30.9805C182.685 30.3912 182.419 29.9324 181.951 29.604C181.488 29.2757 180.885 29.1115 180.143 29.1115C179.621 29.1115 179.174 29.1902 178.8 29.3477C178.427 29.5051 178.141 29.7187 177.944 29.9886C177.746 30.2585 177.644 30.5666 177.64 30.913C177.64 31.2009 177.705 31.4505 177.836 31.6619C177.971 31.8733 178.153 32.0533 178.382 32.2017C178.612 32.3456 178.866 32.4671 179.145 32.5661C179.423 32.665 179.705 32.7482 179.988 32.8157L181.283 33.1396C181.805 33.261 182.307 33.4252 182.788 33.6321C183.274 33.839 183.708 34.0999 184.09 34.4148C184.477 34.7296 184.783 35.1097 185.008 35.555C185.233 36.0004 185.345 36.5221 185.345 37.1204C185.345 37.93 185.138 38.643 184.724 39.2592C184.311 39.871 183.712 40.35 182.93 40.6964C182.152 41.0382 181.209 41.2092 180.103 41.2092C179.028 41.2092 178.094 41.0427 177.303 40.7099C176.515 40.377 175.899 39.8912 175.454 39.2525C175.013 38.6138 174.775 37.8356 174.739 36.918H177.201C177.237 37.3993 177.386 37.7996 177.647 38.119C177.908 38.4383 178.247 38.6767 178.665 38.8342C179.088 38.9916 179.561 39.0703 180.082 39.0703C180.627 39.0703 181.103 38.9893 181.513 38.8274C181.927 38.661 182.25 38.4316 182.484 38.1392C182.718 37.8423 182.837 37.496 182.842 37.1001C182.837 36.7403 182.732 36.4434 182.525 36.2095C182.318 35.9711 182.028 35.7732 181.654 35.6158C181.286 35.4538 180.854 35.3099 180.359 35.1839L178.787 34.7791C177.649 34.4867 176.749 34.0437 176.088 33.4499C175.431 32.8517 175.103 32.0578 175.103 31.0682C175.103 30.254 175.323 29.5411 175.764 28.9293C176.21 28.3176 176.815 27.843 177.579 27.5057C178.344 27.1638 179.21 26.9929 180.177 26.9929C181.157 26.9929 182.017 27.1638 182.754 27.5057C183.496 27.843 184.079 28.3131 184.502 28.9158C184.925 29.5141 185.143 30.2023 185.156 30.9805H182.748ZM192.644 30.6364V32.5256H186.686V30.6364H192.644ZM188.157 28.1534H190.6V37.8828C190.6 38.2112 190.649 38.4631 190.748 38.6385C190.851 38.8094 190.986 38.9264 191.153 38.9893C191.319 39.0523 191.504 39.0838 191.706 39.0838C191.859 39.0838 191.998 39.0726 192.124 39.0501C192.255 39.0276 192.354 39.0073 192.421 38.9893L192.833 40.8988C192.702 40.9438 192.516 40.9933 192.273 41.0472C192.034 41.1012 191.742 41.1327 191.396 41.1417C190.784 41.1597 190.233 41.0675 189.743 40.8651C189.252 40.6581 188.863 40.3388 188.575 39.907C188.292 39.4751 188.153 38.9354 188.157 38.2876V28.1534ZM197.669 41.2092C197.012 41.2092 196.421 41.0922 195.894 40.8583C195.373 40.6199 194.959 40.2691 194.653 39.8058C194.352 39.3424 194.201 38.7712 194.201 38.092C194.201 37.5072 194.309 37.0237 194.525 36.6413C194.741 36.259 195.035 35.9531 195.409 35.7237C195.782 35.4943 196.202 35.3211 196.67 35.2042C197.143 35.0827 197.631 34.995 198.134 34.9411C198.742 34.8781 199.234 34.8219 199.612 34.7724C199.99 34.7184 200.264 34.6374 200.435 34.5295C200.611 34.417 200.698 34.2438 200.698 34.0099V33.9695C200.698 33.4612 200.548 33.0676 200.246 32.7887C199.945 32.5098 199.511 32.3704 198.944 32.3704C198.346 32.3704 197.871 32.5008 197.52 32.7617C197.174 33.0226 196.94 33.3307 196.819 33.6861L194.538 33.3622C194.718 32.7325 195.015 32.2062 195.429 31.7834C195.843 31.3561 196.349 31.0367 196.947 30.8253C197.545 30.6094 198.206 30.5014 198.931 30.5014C199.43 30.5014 199.927 30.5599 200.422 30.6768C200.916 30.7938 201.369 30.9872 201.778 31.2571C202.187 31.5225 202.516 31.8846 202.763 32.3434C203.015 32.8022 203.141 33.3757 203.141 34.0639V41H200.793V39.5763H200.712C200.563 39.8642 200.354 40.1341 200.084 40.386C199.819 40.6334 199.484 40.8336 199.079 40.9865C198.679 41.1349 198.209 41.2092 197.669 41.2092ZM198.303 39.4144C198.793 39.4144 199.218 39.3177 199.578 39.1243C199.938 38.9264 200.215 38.6655 200.408 38.3416C200.606 38.0178 200.705 37.6647 200.705 37.2823V36.0611C200.629 36.1241 200.498 36.1825 200.314 36.2365C200.134 36.2905 199.931 36.3377 199.706 36.3782C199.482 36.4187 199.259 36.4547 199.039 36.4862C198.818 36.5176 198.627 36.5446 198.465 36.5671C198.101 36.6166 197.775 36.6976 197.487 36.81C197.199 36.9225 196.972 37.0799 196.805 37.2823C196.639 37.4802 196.556 37.7366 196.556 38.0515C196.556 38.5013 196.72 38.8409 197.048 39.0703C197.376 39.2997 197.795 39.4144 198.303 39.4144ZM210.117 41.2024C209.083 41.2024 208.194 40.9753 207.452 40.521C206.715 40.0666 206.146 39.4392 205.745 38.6385C205.349 37.8333 205.151 36.9067 205.151 35.8587C205.151 34.8061 205.354 33.8772 205.759 33.0721C206.164 32.2624 206.735 31.6327 207.472 31.1829C208.215 30.7286 209.092 30.5014 210.104 30.5014C210.945 30.5014 211.689 30.6566 212.337 30.967C212.989 31.2728 213.509 31.7069 213.896 32.2692C214.283 32.8269 214.503 33.4792 214.557 34.2259H212.222C212.128 33.7266 211.903 33.3105 211.548 32.9776C211.197 32.6403 210.727 32.4716 210.138 32.4716C209.638 32.4716 209.2 32.6065 208.822 32.8764C208.444 33.1418 208.149 33.5241 207.938 34.0234C207.731 34.5227 207.628 35.121 207.628 35.8182C207.628 36.5244 207.731 37.1316 207.938 37.6399C208.145 38.1437 208.435 38.5328 208.808 38.8072C209.186 39.0771 209.629 39.212 210.138 39.212C210.497 39.212 210.819 39.1445 211.102 39.0096C211.39 38.8701 211.631 38.67 211.824 38.4091C212.018 38.1482 212.151 37.8311 212.222 37.4577H214.557C214.499 38.1909 214.283 38.8409 213.909 39.4077C213.536 39.9699 213.028 40.4107 212.384 40.7301C211.741 41.045 210.985 41.2024 210.117 41.2024ZM218.789 37.7479L218.782 34.7994H219.174L222.898 30.6364H225.752L221.171 35.7372H220.665L218.789 37.7479ZM216.563 41V27.1818H219.005V41H216.563ZM223.067 41L219.693 36.2837L221.34 34.5632L225.988 41H223.067Z" fill="black"/>
</g>
<defs>
<clipPath id="clip0_7_194">
<rect width="400" height="220" fill="white"/>
</clipPath>
</defs>
</svg>
