<svg width="400" height="220" viewBox="0 0 400 220" fill="none" xmlns="http://www.w3.org/2000/svg">
<g clip-path="url(#clip0_7_2)">
<path d="M0 20C0 8.9543 8.95431 0 20 0H380C391.046 0 400 8.95431 400 20V200C400 211.046 391.046 220 380 220H20C8.95431 220 0 211.046 0 200V20Z" fill="white"/>
<path d="M92.9794 114.8V126H90.8994V121.2H85.1074V126H83.0274V114.8H85.1074V119.424H90.8994V114.8H92.9794Z" fill="#3D3D3D"/>
<path d="M107 120C107 109.507 98.4934 101 88 101C77.5066 101 69 109.507 69 120C69 130.493 77.5066 139 88 139C98.4934 139 107 130.493 107 120Z" stroke="#0032FF" stroke-width="2"/>
<path d="M148.545 124.256V126H140.145V114.8H148.321V116.544H142.225V119.456H147.633V121.168H142.225V124.256H148.545Z" fill="#3D3D3D"/>
<path d="M163 120C163 109.507 154.493 101 144 101C133.507 101 125 109.507 125 120C125 130.493 133.507 139 144 139C154.493 139 163 130.493 163 120Z" stroke="#0032FF" stroke-width="2"/>
<path d="M196.715 114.8H198.795V124.24H204.651V126H196.715V114.8Z" fill="#3D3D3D"/>
<path d="M219 120C219 109.507 210.493 101 200 101C189.507 101 181 109.507 181 120C181 130.493 189.507 139 200 139C210.493 139 219 130.493 219 120Z" stroke="#0032FF" stroke-width="2"/>
<path d="M252.715 114.8H254.795V124.24H260.651V126H252.715V114.8Z" fill="#3D3D3D"/>
<path d="M275 120C275 109.507 266.493 101 256 101C245.507 101 237 109.507 237 120C237 130.493 245.507 139 256 139C266.493 139 275 130.493 275 120Z" stroke="#0032FF" stroke-width="2"/>
<path d="M312.002 126.16C310.86 126.16 309.831 125.915 308.914 125.424C307.996 124.923 307.276 124.235 306.754 123.36C306.231 122.475 305.97 121.488 305.97 120.4C305.97 119.312 306.231 118.331 306.754 117.456C307.276 116.571 307.996 115.883 308.914 115.392C309.831 114.891 310.86 114.64 312.002 114.64C313.143 114.64 314.172 114.891 315.09 115.392C316.007 115.883 316.727 116.565 317.25 117.44C317.772 118.315 318.034 119.301 318.034 120.4C318.034 121.499 317.772 122.485 317.25 123.36C316.727 124.235 316.007 124.923 315.09 125.424C314.172 125.915 313.143 126.16 312.002 126.16ZM312.002 124.336C312.748 124.336 313.42 124.171 314.018 123.84C314.615 123.499 315.084 123.029 315.426 122.432C315.767 121.824 315.938 121.147 315.938 120.4C315.938 119.653 315.767 118.981 315.426 118.384C315.084 117.776 314.615 117.307 314.018 116.976C313.42 116.635 312.748 116.464 312.002 116.464C311.255 116.464 310.583 116.635 309.986 116.976C309.388 117.307 308.919 117.776 308.578 118.384C308.236 118.981 308.066 119.653 308.066 120.4C308.066 121.147 308.236 121.824 308.578 122.432C308.919 123.029 309.388 123.499 309.986 123.84C310.583 124.171 311.255 124.336 312.002 124.336Z" fill="#3D3D3D"/>
<path d="M331 120C331 109.507 322.493 101 312 101C301.507 101 293 109.507 293 120C293 130.493 301.507 139 312 139C322.493 139 331 130.493 331 120Z" stroke="#0032FF" stroke-width="2"/>
<path d="M20 1H380V-1H20V1ZM399 20V200H401V20H399ZM380 219H20V221H380V219ZM1 200V20H-1V200H1ZM20 219C9.50659 219 1 210.493 1 200H-1C-1 211.598 8.40203 221 20 221V219ZM399 200C399 210.493 390.493 219 380 219V221C391.598 221 401 211.598 401 200H399ZM380 1C390.493 1 399 9.50659 399 20H401C401 8.40202 391.598 -1 380 -1V1ZM20 -1C8.40202 -1 -1 8.40201 -1 20H1C1 9.50658 9.50659 1 20 1V-1Z" fill="#141414"/>
<path d="M181.124 30.9805C181.061 30.3912 180.796 29.9324 180.328 29.604C179.865 29.2757 179.262 29.1115 178.52 29.1115C177.998 29.1115 177.55 29.1902 177.177 29.3477C176.804 29.5051 176.518 29.7187 176.32 29.9886C176.122 30.2585 176.021 30.5666 176.016 30.913C176.016 31.2009 176.082 31.4505 176.212 31.6619C176.347 31.8733 176.529 32.0533 176.759 32.2017C176.988 32.3456 177.242 32.4671 177.521 32.5661C177.8 32.665 178.081 32.7482 178.364 32.8157L179.66 33.1396C180.182 33.261 180.683 33.4252 181.164 33.6321C181.65 33.839 182.084 34.0999 182.467 34.4148C182.854 34.7296 183.159 35.1097 183.384 35.555C183.609 36.0004 183.722 36.5221 183.722 37.1204C183.722 37.93 183.515 38.643 183.101 39.2592C182.687 39.871 182.089 40.35 181.306 40.6964C180.528 41.0382 179.586 41.2092 178.479 41.2092C177.404 41.2092 176.471 41.0427 175.679 40.7099C174.892 40.377 174.276 39.8912 173.83 39.2525C173.389 38.6138 173.151 37.8356 173.115 36.918H175.578C175.614 37.3993 175.762 37.7996 176.023 38.119C176.284 38.4383 176.624 38.6767 177.042 38.8342C177.465 38.9916 177.937 39.0703 178.459 39.0703C179.003 39.0703 179.48 38.9893 179.889 38.8274C180.303 38.661 180.627 38.4316 180.861 38.1392C181.095 37.8423 181.214 37.496 181.218 37.1001C181.214 36.7403 181.108 36.4434 180.901 36.2095C180.694 35.9711 180.404 35.7732 180.031 35.6158C179.662 35.4538 179.23 35.3099 178.735 35.1839L177.163 34.7791C176.025 34.4867 175.126 34.0437 174.465 33.4499C173.808 32.8517 173.479 32.0578 173.479 31.0682C173.479 30.254 173.7 29.5411 174.141 28.9293C174.586 28.3176 175.191 27.843 175.956 27.5057C176.72 27.1638 177.586 26.9929 178.553 26.9929C179.534 26.9929 180.393 27.1638 181.131 27.5057C181.873 27.843 182.455 28.3131 182.878 28.9158C183.301 29.5141 183.519 30.2023 183.533 30.9805H181.124ZM191.02 30.6364V32.5256H185.063V30.6364H191.02ZM186.534 28.1534H188.976V37.8828C188.976 38.2112 189.025 38.4631 189.124 38.6385C189.228 38.8094 189.363 38.9264 189.529 38.9893C189.696 39.0523 189.88 39.0838 190.083 39.0838C190.235 39.0838 190.375 39.0726 190.501 39.0501C190.631 39.0276 190.73 39.0073 190.798 38.9893L191.209 40.8988C191.079 40.9438 190.892 40.9933 190.649 41.0472C190.411 41.1012 190.119 41.1327 189.772 41.1417C189.16 41.1597 188.609 41.0675 188.119 40.8651C187.629 40.6581 187.24 40.3388 186.952 39.907C186.668 39.4751 186.529 38.9354 186.534 38.2876V28.1534ZM193.063 41V30.6364H195.431V32.3636H195.539C195.728 31.7654 196.052 31.3043 196.511 30.9805C196.974 30.6521 197.503 30.4879 198.096 30.4879C198.231 30.4879 198.382 30.4947 198.549 30.5082C198.719 30.5172 198.861 30.5329 198.974 30.5554V32.8022C198.87 32.7662 198.706 32.7347 198.481 32.7077C198.261 32.6763 198.047 32.6605 197.84 32.6605C197.395 32.6605 196.994 32.7572 196.639 32.9506C196.288 33.1396 196.012 33.4027 195.809 33.7401C195.607 34.0774 195.506 34.4665 195.506 34.9073V41H193.063ZM200.596 41V30.6364H203.039V41H200.596ZM201.824 29.1655C201.437 29.1655 201.105 29.0373 200.826 28.7809C200.547 28.52 200.407 28.2074 200.407 27.843C200.407 27.4742 200.547 27.1616 200.826 26.9052C201.105 26.6443 201.437 26.5138 201.824 26.5138C202.216 26.5138 202.548 26.6443 202.823 26.9052C203.102 27.1616 203.241 27.4742 203.241 27.843C203.241 28.2074 203.102 28.52 202.823 28.7809C202.548 29.0373 202.216 29.1655 201.824 29.1655ZM207.993 34.9276V41H205.55V30.6364H207.885V32.3974H208.006C208.245 31.8171 208.625 31.3561 209.147 31.0142C209.673 30.6723 210.323 30.5014 211.097 30.5014C211.812 30.5014 212.435 30.6544 212.966 30.9602C213.501 31.2661 213.915 31.7092 214.207 32.2894C214.504 32.8697 214.65 33.5736 214.646 34.4013V41H212.203V34.7791C212.203 34.0864 212.023 33.5444 211.663 33.1531C211.308 32.7617 210.815 32.5661 210.186 32.5661C209.758 32.5661 209.378 32.6605 209.045 32.8494C208.717 33.0339 208.458 33.3015 208.269 33.6523C208.085 34.0032 207.993 34.4283 207.993 34.9276ZM221.636 45.1023C220.758 45.1023 220.005 44.9831 219.375 44.7447C218.746 44.5108 218.24 44.1959 217.857 43.8001C217.475 43.4042 217.209 42.9657 217.061 42.4844L219.261 41.9513C219.36 42.1538 219.504 42.3539 219.692 42.5518C219.881 42.7543 220.135 42.9207 220.455 43.0511C220.779 43.1861 221.186 43.2536 221.676 43.2536C222.369 43.2536 222.942 43.0849 223.397 42.7475C223.851 42.4147 224.078 41.8659 224.078 41.1012V39.1378H223.957C223.831 39.3897 223.646 39.6483 223.403 39.9137C223.165 40.1791 222.848 40.4018 222.452 40.5817C222.061 40.7616 221.568 40.8516 220.974 40.8516C220.178 40.8516 219.456 40.6649 218.809 40.2915C218.165 39.9137 217.653 39.3514 217.27 38.6048C216.892 37.8536 216.703 36.9135 216.703 35.7844C216.703 34.6464 216.892 33.6861 217.27 32.9034C217.653 32.1162 218.168 31.5202 218.815 31.1154C219.463 30.7061 220.185 30.5014 220.981 30.5014C221.588 30.5014 222.088 30.6049 222.479 30.8118C222.875 31.0142 223.19 31.2594 223.424 31.5472C223.658 31.8306 223.835 32.0982 223.957 32.3501H224.092V30.6364H226.5V41.1687C226.5 42.0548 226.289 42.788 225.866 43.3683C225.443 43.9485 224.865 44.3826 224.132 44.6705C223.399 44.9583 222.567 45.1023 221.636 45.1023ZM221.656 38.9354C222.173 38.9354 222.614 38.8094 222.978 38.5575C223.343 38.3056 223.619 37.9435 223.808 37.4712C223.997 36.9989 224.092 36.4322 224.092 35.771C224.092 35.1187 223.997 34.5475 223.808 34.0572C223.624 33.5669 223.349 33.1868 222.985 32.9169C222.625 32.6425 222.182 32.5053 221.656 32.5053C221.112 32.5053 220.657 32.647 220.293 32.9304C219.929 33.2138 219.654 33.6029 219.47 34.0977C219.285 34.5879 219.193 35.1457 219.193 35.771C219.193 36.4052 219.285 36.9607 219.47 37.4375C219.659 37.9098 219.935 38.2786 220.3 38.544C220.669 38.8049 221.121 38.9354 221.656 38.9354Z" fill="black"/>
</g>
<defs>
<clipPath id="clip0_7_2">
<rect width="400" height="220" fill="white"/>
</clipPath>
</defs>
</svg>
